<?xml version="1.0" encoding="utf-8"?>
<!-- Generator: Adobe Illustrator 21.1.0, SVG Export Plug-In . SVG Version: 6.00 Build 0)  -->
<svg version="1.1" id="Livello_1" xmlns="http://www.w3.org/2000/svg" xmlns:xlink="http://www.w3.org/1999/xlink" x="0px" y="0px"
	 viewBox="0 0 124.1 43.4" style="enable-background:new 0 0 124.1 43.4;" xml:space="preserve">
<style type="text/css">
	.st0{fill:none;stroke:#0073FF;stroke-width:1.4;stroke-linecap:square;stroke-linejoin:round;}
</style>
<title>logo</title>
<path class="st0" d="M81.4,42.7v-42h17v42 M89.9,0.7v30.1 M73.9,42.7h12.5 M93.4,42.7h13 M5.7,42.7v-42h17v42 M14.2,0.7v30.1
	 M0.7,42.7h10 M17.7,42.7h10 M31,42.7v-42h17v42 M31,21.7h17 M26,42.7h10 M43,42.7h10 M123.4,42.7v-42h-17v42H123.4z M58,0.7v42
	 M53,42.7h21V30.8 M63,0.7H53"/>
</svg>
